<?xml version="1.0" standalone="no"?><!DOCTYPE svg PUBLIC "-//W3C//DTD SVG 1.1//EN" "http://www.w3.org/Graphics/SVG/1.1/DTD/svg11.dtd"><svg t="1645945624468" class="icon" viewBox="0 0 1024 1024" version="1.1" xmlns="http://www.w3.org/2000/svg" p-id="1513" xmlns:xlink="http://www.w3.org/1999/xlink" width="200" height="200"><defs><style type="text/css"></style></defs><path d="M512 512m-512 0a512 512 0 1 0 1024 0 512 512 0 1 0-1024 0Z" fill="#E2E5E7" p-id="1514"></path><path d="M512 544m-96 0a96 96 0 1 0 192 0 96 96 0 1 0-192 0Z" fill="#F15642" p-id="1515"></path><path d="M384 416c-17.696 0-32-14.336-32-32 0-17.632-14.336-32-32-32s-32 14.368-32 32c0 17.664-14.304 32-32 32s-32-14.336-32-32c0-52.928 43.072-96 96-96s96 43.072 96 96c0 17.664-14.304 32-32 32z" fill="#576D7E" p-id="1516"></path><path d="M320 320c45.888 0 84.256 32.416 93.696 75.488 1.376-3.584 2.304-7.424 2.304-11.488 0-52.928-43.072-96-96-96s-96 43.072-96 96c0 4.064 0.928 7.904 2.304 11.488C235.744 352.416 274.112 320 320 320z" fill="#35495C" p-id="1517"></path><path d="M768 416c-17.696 0-32-14.336-32-32 0-17.632-14.336-32-32-32s-32 14.368-32 32c0 17.664-14.304 32-32 32s-32-14.336-32-32c0-52.928 43.072-96 96-96s96 43.072 96 96c0 17.664-14.304 32-32 32z" fill="#576D7E" p-id="1518"></path><path d="M704 320c45.888 0 84.256 32.416 93.696 75.488 1.376-3.584 2.304-7.424 2.304-11.488 0-52.928-43.072-96-96-96s-96 43.072-96 96c0 4.064 0.928 7.904 2.304 11.488C619.744 352.416 658.112 320 704 320z" fill="#35495C" p-id="1519"></path><path d="M682.656 608c-94.272 85.376-247.104 85.344-341.344 0h0.032c-91.616-82.912-238.336-85.024-333.056-6.752C50.56 841.376 259.744 1024 512 1024s461.44-182.624 503.712-422.752c-94.72-78.272-241.44-76.192-333.056 6.752z" fill="#F15642" p-id="1520"></path><path d="M840.512 119.488C915.008 208.416 960 322.912 960 448c0 282.752-229.248 512-512 512-125.088 0-239.552-44.992-328.512-119.488C213.408 952.64 354.304 1024 512 1024c282.752 0 512-229.248 512-512 0-157.696-71.36-298.592-183.488-392.512z" fill="#CAD1D8" p-id="1521"></path><path d="M1015.712 601.248c-20.768-17.184-44.16-30.24-68.768-39.68C895.2 789.632 691.68 960 448 960c-125.088 0-239.552-44.992-328.512-119.488C213.408 952.64 354.304 1024 512 1024c252.256 0 461.44-182.624 503.712-422.752z" fill="#DA4E3C" p-id="1522"></path><path d="M372.448 704c9.216 0 18.528 2.24 27.008 6.944 59.968 33.184 165.184 33.184 225.12 0 24.736-13.728 56.96-6.432 71.936 16.288 14.944 22.72 6.976 52.256-17.792 65.984-93.472 51.744-239.936 51.744-333.408 0-24.736-13.728-32.704-43.264-17.76-65.984 9.824-14.944 27.136-23.232 44.896-23.232z" fill="#576D7E" p-id="1523"></path><path d="M327.552 759.2c9.824-14.944 27.136-23.2 44.896-23.2 9.216 0 18.528 2.208 27.008 6.912 59.968 33.216 165.184 33.216 225.12 0 24.736-13.728 56.96-6.4 71.936 16.288a43.422 43.422 0 0 1 4.384 8.576c4.928-13.024 4-27.808-4.384-40.544-14.976-22.72-47.2-30.016-71.936-16.288-59.936 33.184-165.152 33.184-225.12 0A55.578 55.578 0 0 0 372.448 704c-17.76 0-35.072 8.288-44.864 23.232-8.384 12.704-9.344 27.488-4.448 40.544a46.31 46.31 0 0 1 4.416-8.576z" fill="#35495C" p-id="1524"></path></svg>