<?xml version="1.0" standalone="no"?><!DOCTYPE svg PUBLIC "-//W3C//DTD SVG 1.1//EN" "http://www.w3.org/Graphics/SVG/1.1/DTD/svg11.dtd"><svg t="1645874573843" class="icon" viewBox="0 0 1024 1024" version="1.1" xmlns="http://www.w3.org/2000/svg" p-id="8144" xmlns:xlink="http://www.w3.org/1999/xlink" width="200" height="200"><defs><style type="text/css"></style></defs><path d="M11.605981 512.31167a500.08235 500.08235 0 1 0 500.08235-500.082351 500.133473 500.133473 0 0 0-500.08235 500.082351z" fill="#F2CF3D" p-id="8145"></path><path d="M511.688331 1023.998875A511.227101 511.227101 0 0 1 0.001125 512.31167a511.227101 511.227101 0 0 1 873.482626-361.79542 511.227101 511.227101 0 0 1-361.79542 873.482625z m0-1000.113578a488.477495 488.477495 0 0 0-190.074236 938.306222A488.37525 488.37525 0 0 0 857.022238 166.875517a486.074728 486.074728 0 0 0-345.333907-143.143588z" fill="#231815" p-id="8146"></path><path d="M51.686185 472.231465a460.104391 460.104391 0 0 0 920.208783 0 460.104391 460.104391 0 0 0-920.208783 0z" fill="#FFE20D" p-id="8147"></path><path d="M511.688331 1023.998875A511.227101 511.227101 0 0 1 0.001125 512.31167a511.227101 511.227101 0 0 1 873.482626-361.79542 511.227101 511.227101 0 0 1-361.79542 873.482625z m0-1000.113578a488.477495 488.477495 0 0 0-190.074236 938.306222A488.37525 488.37525 0 0 0 857.022238 166.875517a486.074728 486.074728 0 0 0-345.333907-143.143588z" fill="#231815" p-id="8148"></path><path d="M352.747825 132.521056c0 28.321981 71.11169 51.12271 158.838261 51.12271s158.83826-22.954097 158.83826-51.12271c0-28.373104-71.11169-51.12271-158.787138-51.12271S352.747825 104.096829 352.747825 132.469933z" fill="#FFF0B3" p-id="8149"></path><path d="M235.421206 487.210419a41.358272 41.358272 0 0 0 82.716545 0 41.358272 41.358272 0 1 0-82.716545 0z m469.971074 0a41.358272 41.358272 0 1 0 82.716545 0 41.358272 41.358272 0 0 0-82.716545 0z" fill="#231815" p-id="8150"></path><path d="M178.470506 636.386487c0 20.449084 26.481564 36.757229 59.251221 36.757229s59.251221-16.41039 59.251222-36.706106c0-20.449084-26.532687-36.706106-59.251222-36.706106s-59.251221 16.41039-59.251221 36.654983z m548.035453 0c0 20.449084 26.532687 36.757229 59.251221 36.757229s59.302344-16.461513 59.302344-36.757229-26.532687-36.706106-59.302344-36.706106-59.251221 16.461513-59.251221 36.706106z" fill="#FFA178" p-id="8151"></path><path d="M614.393856 772.577387H408.982806a11.655978 11.655978 0 0 1 0-23.260833h205.308804a11.655978 11.655978 0 0 1 0 23.260833z" fill="#231815" p-id="8152"></path></svg>