<?xml version="1.0" standalone="no"?><!DOCTYPE svg PUBLIC "-//W3C//DTD SVG 1.1//EN" "http://www.w3.org/Graphics/SVG/1.1/DTD/svg11.dtd"><svg t="1645874430065" class="icon" viewBox="0 0 1024 1024" version="1.1" xmlns="http://www.w3.org/2000/svg" p-id="1249" xmlns:xlink="http://www.w3.org/1999/xlink" width="200" height="200"><defs><style type="text/css"></style></defs><path d="M1021.707569 507.946688c0 68.831868-6.189916 137.230442-30.949581 197.025032-25.688152 61.899162-73.041011 112.161281-119.836777 158.895148a496.926471 496.926471 0 0 1-164.342274 106.466559c-59.79459 24.759665-122.684139 53.666573-191.516007 53.666573s-134.444979-22.1599-194.301469-46.981464c-61.899162-25.688152-114.142054-67.098691-160.93782-113.832558a500.392824 500.392824 0 0 1-111.418492-162.052006C23.707384 641.277483 2.290274 576.778556 2.290274 507.946688a515.620018 515.620018 0 0 1 38.872673-196.158444c25.750051-61.899162 70.007952-114.018256 116.74182-160.93782s100.338541-86.906423 162.361501-112.656475A507.077933 507.077933 0 0 1 514.815333 0.002166c68.831868 0 132.526105 18.569749 192.320696 43.63891 61.899162 25.688152 124.664912 53.91417 171.398779 100.648037s72.174423 110.490004 97.862575 172.451064c24.821564 59.856489 45.310186 122.746038 45.310186 191.206511z" fill="#FFD635" p-id="1250"></path><path d="M624.191152 957.891695c-64.870322 0-126.831383-20.921917-183.221519-44.3198-58.494708-24.264471-107.704542-63.260943-151.776744-107.395045a471.91921 471.91921 0 0 1-104.795281-152.829031c-23.397883-56.390136-43.329413-117.237012-43.329413-182.169233a486.775008 486.775008 0 0 1 36.396707-185.016595c24.264471-58.494708 66.232103-107.518844 110.118609-151.591047S382.227329 52.430757 440.660138 28.166285A469.133747 469.133747 0 0 1 534.127872 0.559259C527.752258 0.002166 521.314745 0.002166 514.815333 0.002166a507.077933 507.077933 0 0 0-194.549065 38.191783c-61.899162 25.750051-115.627634 66.108305-162.361501 112.842172s-90.991768 99.038659-116.74182 160.937821A515.620018 515.620018 0 0 0 2.290274 507.946688c0 68.831868 21.41711 133.330795 46.238674 193.187284a499.773832 499.773832 0 0 0 111.418491 162.052006c46.733867 46.733867 99.038659 88.144406 160.937821 113.832558 59.856489 24.759665 125.5315 46.981464 194.301468 46.981464s131.721416-28.845009 191.516007-53.666573a517.848388 517.848388 0 0 0 134.568778-79.540423c-11.760841 5.818521-23.769278 11.389446-36.087212 16.527076-56.761531 23.397883-115.813332 50.571615-180.993149 50.571615z" fill="#F7B523" p-id="1251"></path><path d="M433.294137 132.156877s3.652051-2.847361 10.275261-7.304101a240.168748 240.168748 0 0 1 28.659312-16.650875 235.712008 235.712008 0 0 1 44.3198-16.836572A217.513655 217.513655 0 0 1 571.762562 83.689833h14.05111c4.39484 0 9.408673 0.309496 13.927311 0.618992s9.099177 0.990387 13.555917 1.609378 8.789681 1.547479 13.060723 2.475967a168.613317 168.613317 0 0 1 24.078774 7.489798 140.139702 140.139702 0 0 1 20.488623 9.903866 123.798324 123.798324 0 0 1 27.483227 21.293312 74.278994 74.278994 0 0 1 6.623211 7.737395 27.607026 27.607026 0 0 1 2.16647 3.033059s-5.19953 0.928487-13.617815 1.547479c-4.147244 0.371395-9.099177 0.433294-14.670102 0.680891s-11.637042 0-18.136454 0-13.432118-0.618992-20.67432-1.114185-14.732001-1.361782-22.469396-2.352168l-11.698941-1.609379-12.008438-1.918874c-4.085345-0.680891-7.737395-1.423681-12.379832-2.042672l-6.189916-1.237983a55.214052 55.214052 0 0 0-5.818522-0.74279 438.988855 438.988855 0 0 0-91.54886 0l-32.125665 2.723563-9.222975 0.680891z" fill="#FFEF57" p-id="1252"></path><path d="M244.254097 323.053892l8.789681-3.837748 10.089564-4.394841c3.837748-1.733177 7.613597-3.837748 12.379832-6.189916s9.037278-4.580538 14.05111-7.551698 10.275261-5.694723 15.536689-9.161076 10.770454-6.62321 16.093782-10.522857 10.894252-7.489799 16.155682-11.575143c10.708555-7.923093 20.860018-16.527076 30.144891-24.759665s17.579362-16.403278 24.326371-23.583581 12.379832-13.30832 15.722387-17.517462l3.961546-4.890034 1.114185-1.48558v-0.371395A26.245245 26.245245 0 0 1 454.463651 229.029065a16.465177 16.465177 0 0 1-1.609378 1.918874l-2.166471 2.352168-5.509026 5.632824c-4.704336 4.642437-11.389446 11.141849-19.745832 18.569749s-18.569749 15.350992-29.278304 23.521681-22.964589 16.093782-35.40632 23.831177c-6.189916 3.961546-12.379832 7.427899-18.569749 10.956152s-12.379832 6.685109-18.569748 9.841967-12.379832 5.694723-17.76506 8.356387-11.203748 4.890034-16.403278 6.932706-10.027664 4.023446-14.051109 5.385227l-10.460959 3.466353-9.284874 3.033059a15.969984 15.969984 0 0 1-11.389446-29.773497zM922.111818 352.827389l-9.099177-3.033059-10.460958-3.156857c-4.023446-1.361782-8.85158-3.404454-13.989211-5.385228s-10.832353-4.271042-16.403278-6.932706-11.82274-5.13763-17.765059-8.356387-12.379832-6.189916-18.569748-9.841966-12.379832-6.994605-18.569749-10.956152c-12.379832-7.551698-24.450169-15.908085-35.46822-24.016875s-20.983816-16.21758-29.278303-23.521681-15.041496-13.679715-19.745833-18.569749l-5.509025-5.632823-2.166471-2.352169a26.245245 26.245245 0 1 1 38.563178-35.530118 23.088387 23.088387 0 0 1 1.609378 1.856974v0.371395l1.114185 1.48558 3.961546 4.890034c3.590151 4.209143 8.85158 10.399059 15.722387 17.517463s15.103395 15.227194 24.326371 23.58358 19.436337 16.836572 30.144892 24.759665c5.261429 4.085345 10.770454 7.799294 16.155681 11.575143s10.894252 7.118404 16.155681 10.522858 10.522858 6.189916 15.474791 9.161076 9.718168 5.385227 14.051109 7.551698 8.232589 4.271042 12.070337 6.189916l10.089563 4.39484 8.789681 3.837748A15.969984 15.969984 0 0 1 922.111818 352.827389zM617.939337 297.118143s0 2.104572 0.74279 5.694723c0 1.856975 0.557092 4.023446 0.866588 6.561311s0.495193 5.88042 0.804689 9.222975 0.557092 7.180303 0.557093 10.956152v12.070336c0 4.147244 0 8.542084-0.433294 12.936925s-0.495193 8.85158-1.052286 13.30832c-0.804689 8.913479-2.22837 17.765059-3.775849 26.059547s-3.342555 16.031883-5.19953 22.593194-3.528252 12.379832-4.890033 16.031883c-0.74279 2.042672-1.361782 3.590151-1.733177 4.704336l-0.804689 1.980774a24.759665 24.759665 0 0 1-45.743481-18.569749l1.361782-3.280656a4.890034 4.890034 0 0 0 0.495193-0.74279c0.371395-0.74279 0.990387-1.733177 1.733177-3.033058 1.48558-2.847361 3.652051-6.994605 6.189916-12.379833s4.951933-11.513244 7.489799-18.569748 4.890034-14.236807 6.808907-21.788505c1.114185-3.775849 1.918874-7.613597 2.785463-11.327547s1.48558-7.489799 2.16647-11.07995 1.114185-7.180303 1.609379-10.522857 0.804689-6.189916 0.990386-9.222975 0.557092-5.323328 0.680891-7.861194 0-4.766235 0-6.62321v-5.756622a14.113009 14.113009 0 0 1 28.349816-1.361782z" fill="#F7B523" p-id="1253"></path><path d="M284.364754 404.884584c7.551698 4.023446 15.289093 8.480185 22.778892 12.379832s14.917698 7.551698 22.716992 11.018051 15.412891 6.994605 23.150287 10.33716c3.899647 1.671277 7.861194 3.218756 11.76084 4.828135s7.799294 3.156857 11.760841 4.642437c15.722387 6.189916 31.692371 11.513244 47.786153 16.465177 7.984992 2.475966 16.031883 4.766235 24.078774 6.932706l12.379832 3.094958c3.899647 0.990387 8.170689 1.918874 11.513244 2.599765a25.13106 25.13106 0 0 1 15.041497 40.358253l-0.618992 0.680891a35.406321 35.406321 0 0 1-2.537866 2.909261l-2.228369 2.414067c-1.48558 1.609378-2.97116 3.094958-4.518639 4.518639-2.909261 2.97116-6.189916 5.632824-8.975379 8.418286s-6.189916 5.323328-9.346773 7.799294-6.189916 5.075731-9.532471 7.366-6.189916 4.828135-9.780068 6.994606-6.62321 4.39484-9.965765 6.499412c-6.808908 4.147244-13.617816 8.170689-20.67432 11.76084-3.466353 1.918874-7.056504 3.590151-10.646656 5.261429s-7.118404 3.404454-10.770454 4.828135l-10.956151 4.39484c-3.652051 1.48558-7.489799 2.537866-11.141849 3.837748s-7.366 2.599765-11.203749 3.466353l-11.698941 2.723563c-3.775849 1.114185-7.613597 1.733177-11.451345 2.475967l-11.389446 2.166471a13.122622 13.122622 0 0 1-6.870807-25.316758l0.990387-0.371395L324.165915 576.902354c3.280656-1.176084 6.62321-2.22837 9.780068-3.713949l9.656269-4.085345c3.218756-1.299882 6.189916-3.094958 9.408673-4.580538s6.189916-2.97116 9.161075-4.828135l8.975379-5.199529c3.033059-1.671277 5.818521-3.775849 8.727782-5.632824s5.756622-3.775849 8.480185-6.189916c5.632824-3.961546 10.956152-8.294488 16.155681-12.379832 2.599765-2.22837 5.13763-4.580538 7.675496-6.808908s4.890034-4.766235 7.304101-7.118404 4.704336-4.890034 6.994606-7.304101 4.45674-5.013832 6.685109-7.489799 4.209143-5.13763 6.189916-7.737395c0.990387-1.299882 1.918874-2.537866 2.785463-3.837748l1.299882-1.856975a7.118404 7.118404 0 0 0 0.866588-1.42368l14.422505 41.101043c-4.951933-1.671277-8.975378-3.156857-13.30832-4.828135l-12.379832-4.951932c-8.294488-3.466353-16.527076-6.994605-24.759665-10.646656-16.27948-7.427899-32.249463-15.227194-47.848052-23.707379-3.961546-2.042672-7.799294-4.209143-11.698942-6.189916L336.545748 470.745292c-7.613597-4.580538-15.289093-8.975378-22.716993-13.803513s-14.422505-9.656269-22.098001-14.608202-14.236807-10.089563-21.35521-15.103396a13.184521 13.184521 0 0 1 13.741613-22.407496zM887.757783 427.106383c-7.118404 5.013832-13.865412 10.151463-21.293311 15.103395s-14.917698 9.965765-22.407497 14.608202-15.103395 9.222975-22.716992 13.803514l-11.575144 6.561311c-3.837748 2.166471-7.737395 4.332941-11.637042 6.189916-15.660488 8.480185-31.630472 16.27948-47.909951 23.707379-8.10879 3.652051-16.341379 7.180303-24.759665 10.646656l-12.379832 4.951933c-4.332941 1.671277-8.356387 3.156857-13.30832 4.828134l14.360605-40.791547a16.341379 16.341379 0 0 0 0.928488 1.42368l1.237983 1.856975c0.866588 1.299882 1.795076 2.537866 2.785462 3.837748 1.918874 2.599765 4.085345 5.13763 6.189917 7.737395s4.332941 5.075731 6.62321 7.489799 4.518639 5.013832 6.994605 7.304101 4.766235 4.890034 7.366 7.118404 5.013832 4.580538 7.613597 6.808908c5.261429 4.39484 10.584757 8.727782 16.155682 12.379832 2.723563 2.104572 5.632824 4.023446 8.480185 6.189916s5.694723 3.961546 8.727782 5.632824l8.975378 5.199529c2.97116 1.856975 6.189916 3.218756 9.222975 4.828135s6.189916 3.280656 9.408673 4.580538l9.59437 4.085345c3.218756 1.48558 6.189916 2.537866 9.841966 3.713949l9.965766 3.466353 0.928487 0.371395a13.122622 13.122622 0 0 1-6.808908 25.316758l-11.451345-2.166471a116.432323 116.432323 0 0 1-11.389446-2.475967l-11.327546-2.971159c-3.837748-0.866588-7.489799-2.290269-11.203748-3.466353s-7.551698-2.352168-11.14185-3.837748l-10.956151-4.394841c-3.71395-1.423681-7.180303-3.218756-10.832354-4.828135s-7.180303-3.342555-10.584756-5.261428c-7.056504-3.590151-13.927311-7.613597-20.736219-11.760841-3.342555-2.104572-6.62321-4.332941-9.965765-6.499412s-6.189916-4.642437-9.780068-6.994605-6.189916-4.890034-9.532471-7.366001-6.189916-5.19953-9.284874-7.799294-6.189916-5.447126-9.037278-8.418286c-1.48558-1.423681-2.97116-2.909261-4.456739-4.518639l-2.290269-2.414067a35.406321 35.406321 0 0 1-2.537866-2.909261l-0.495193-0.618991a25.13106 25.13106 0 0 1 3.65205-35.282522 25.87385 25.87385 0 0 1 11.265648-5.137631c3.404454-0.680891 7.613597-1.609378 11.575143-2.599765l12.008437-3.094958c8.046891-2.166471 16.093782-4.45674 24.140673-6.932706 16.031883-4.951933 32.001867-10.399059 47.724254-16.465177 3.961546-1.48558 7.861194-3.033059 11.82274-4.642437s7.861194-3.156857 11.698942-4.828135c7.737395-3.342555 15.53669-6.685109 23.212185-10.33716s15.165295-7.242202 22.655093-11.018051 15.227194-8.10879 22.840791-12.379832a13.184521 13.184521 0 0 1 13.803513 22.469396zM331.779512 709.552258l97.862575 61.899162-32.001867 2.537866 83.378171-83.440071a24.759665 24.759665 0 0 1 35.034926 0l0.618991 0.618992 84.801852 91.239365h-36.272909l84.863751-90.991768a24.759665 24.759665 0 0 1 35.034926-1.176084l91.239364 86.225532-31.939967-1.733177 97.986373-64.994119a17.579362 17.579362 0 0 1 21.107614 27.978421l-89.258591 76.507364a23.026488 23.026488 0 0 1-30.949581-0.680891l-1.176084-1.052286-91.239365-86.225532 35.096825-1.114185-84.863751 90.991768a24.759665 24.759665 0 0 1-34.973026 1.237983c-0.433294-0.371395-0.866588-0.866588-1.237984-1.237983l-84.801851-90.991768 35.653917 0.618991-83.130574 83.378171-1.052286 1.052286a23.088387 23.088387 0 0 1-30.949581 1.48558L311.167091 737.963973a17.579362 17.579362 0 0 1 20.612421-28.411715z" fill="#943436" p-id="1254"></path></svg>